<?xml version="1.0" encoding="UTF-8" standalone="no"?> <!-- Created with Vectornator for iOS (http://vectornator.io/) --><!DOCTYPE svg PUBLIC "-//W3C//DTD SVG 1.1//EN" "http://www.w3.org/Graphics/SVG/1.1/DTD/svg11.dtd">
<svg style="fill-rule:nonzero;clip-rule:evenodd;stroke-linecap:round;stroke-linejoin:round;" xmlns:vectornator="http://vectornator.io" viewBox="0 0 143 32" xmlns:xlink="http://www.w3.org/1999/xlink" height="100%" version="1.1" xml:space="preserve" width="100%" xmlns="http://www.w3.org/2000/svg">
<metadata>
<vectornator:setting value="false" key="UndoHistoryDisabled"/>
<vectornator:setting value="false" key="WDOutlineMode"/>
<vectornator:setting value="Points" key="WDUnits"/>
<vectornator:setting key="VNSnapToGuides" value="true"/>
<vectornator:setting value="false" key="WDIsolateActiveLayer"/>
<vectornator:setting value="true" key="WDRulersVisible"/>
<vectornator:setting value="true" key="VNDimensionsVisible"/>
<vectornator:setting key="WDDynamicGuides" value="false"/>
<vectornator:setting value="true" key="WDGuidesVisible"/>
<vectornator:setting value="false" key="IsTimeLapseWatermarkDisabled"/>
<vectornator:setting key="WDSnapToGrid" value="false"/>
<vectornator:setting key="WDDisplayWhiteBackground" value="false"/>
<vectornator:setting value="false" key="WDCMYKEnabledKey"/>
<vectornator:setting value="false" key="WDSnapToPoints"/>
<vectornator:setting key="WDSnapToEdges" value="false"/>
</metadata>
<defs/>
<g id="Logo" vectornator:layerName="Logo">
<g opacity="1">
<path fill="#27272a" d="M52.7151+24.8612C54.3927+24.8612+55.8399+24.5047+57.0567+23.7916C58.2735+23.0786+59.2128+22.0667+59.8745+20.7562C60.5363+19.4457+60.8671+17.8914+60.8671+16.0934L60.8671+16.07C60.8671+14.272+60.5361+12.7194+59.874+11.4121C59.2119+10.1047+58.2708+9.09489+57.0509+8.38248C55.8309+7.67008+54.3856+7.31388+52.7151+7.31388C51.0525+7.31388+49.611+7.66926+48.3907+8.38001C47.1704+9.09077+46.2272+10.1004+45.5612+11.409C44.8952+12.7176+44.5622+14.2713+44.5622+16.07L44.5622+16.0934C44.5622+17.8914+44.893+19.4466+45.5548+20.7591C46.2165+22.0716+47.1574+23.0834+48.3773+23.7946C49.5973+24.5057+51.0432+24.8612+52.7151+24.8612ZM52.7151+21.8612C51.7893+21.8612+50.9868+21.6262+50.3075+21.1562C49.6281+20.6862+49.1023+20.0193+48.73+19.1557C48.3577+18.292+48.1715+17.2713+48.1715+16.0934L48.1715+16.07C48.1715+14.8843+48.3582+13.8616+48.7316+13.0019C49.1051+12.1421+49.633+11.4792+50.3155+11.0131C50.998+10.5469+51.7979+10.3139+52.7151+10.3139C53.6395+10.3139+54.4422+10.5477+55.1231+11.0154C55.804+11.4832+56.33+12.1477+56.7011+13.009C57.0722+13.8703+57.2578+14.8907+57.2578+16.07L57.2578+16.0934C57.2578+17.2649+57.0738+18.2825+56.7059+19.1462C56.338+20.0098+55.8151+20.6782+55.1374+21.1514C54.4597+21.6246+53.6522+21.8612+52.7151+21.8612Z" opacity="1"/>
<path opacity="1" d="M70.5825+24.7909C71.6415+24.7909+72.5552+24.5281+73.3237+24.0026C74.0922+23.477+74.6837+22.7243+75.0982+21.7445C75.5128+20.7647+75.7201+19.5941+75.7201+18.2326L75.7201+18.2187C75.7201+16.8519+75.5125+15.6796+75.0974+14.7018C74.6823+13.724+74.0921+12.9743+73.3269+12.4526C72.5616+11.931+71.6484+11.6701+70.5873+11.6701C69.6981+11.6701+68.9157+11.8843+68.2401+12.3126C67.5645+12.7409+67.0566+13.3305+66.7164+14.0815L66.6205+14.0815L66.6205+7.46421L63.1986+7.46421L63.1986+24.5426L66.6205+24.5426L66.6205+22.4296L66.7164+22.4296C67.0555+23.1664+67.5579+23.7442+68.2235+24.1629C68.8892+24.5816+69.6755+24.7909+70.5825+24.7909ZM69.4357+21.955C68.8725+21.955+68.3789+21.8042+67.9551+21.5027C67.5313+21.2012+67.201+20.7717+66.9643+20.2141C66.7276+19.6566+66.6093+18.998+66.6093+18.2385L66.6093+18.2246C66.6093+17.4604+66.7286+16.8005+66.9673+16.2449C67.2059+15.6893+67.5371+15.2606+67.961+14.9588C68.3848+14.657+68.8764+14.5061+69.4357+14.5061C70.0092+14.5061+70.5057+14.6554+70.9253+14.954C71.3448+15.2527+71.6688+15.679+71.8971+16.2329C72.1254+16.7869+72.2396+17.4488+72.2396+18.2187L72.2396+18.2326C72.2396+18.9994+72.1262+19.6615+71.8995+20.219C71.6727+20.7765+71.3496+21.2052+70.93+21.5051C70.5105+21.805+70.0124+21.955+69.4357+21.955Z" fill="#27272a"/>
<path opacity="1" fill="#27272a" d="M76.6928+28.731C78.1736+28.731+79.2963+28.402+80.0609+27.744C80.8255+27.0859+81.2078+26.1163+81.2078+24.8351L81.2078+11.9184L77.7859+11.9184L77.7859+24.7376C77.7859+25.2529+77.6638+25.6147+77.4194+25.8229C77.1751+26.0312+76.768+26.1353+76.198+26.1353C76.1199+26.1353+76.0439+26.1333+75.97+26.1294C75.8961+26.1255+75.8278+26.1216+75.7653+26.1177L75.7653+28.6911C75.8669+28.7021+76.009+28.7115+76.1915+28.7193C76.3741+28.7271+76.5412+28.731+76.6928+28.731ZM79.4969+10.2399C80.0153+10.2399+80.4526+10.0624+80.8087+9.70725C81.1649+9.35215+81.3429+8.92887+81.3429+8.43742C81.3429+7.93803+81.1649+7.51255+80.8087+7.16099C80.4526+6.80943+80.0153+6.63364+79.4969+6.63364C78.9829+6.63364+78.5468+6.80943+78.1883+7.16099C77.8298+7.51255+77.6506+7.93803+77.6506+8.43742C77.6506+8.92887+77.8298+9.35215+78.1883+9.70725C78.5468+10.0624+78.9829+10.2399+79.4969+10.2399Z"/>
<path fill="#27272a" d="M89.4892+24.8036C90.3922+24.8036+91.1807+24.6859+91.8545+24.4504C92.5283+24.215+93.0977+23.9027+93.5625+23.5135C94.0274+23.1243+94.3952+22.6986+94.6659+22.2364C94.9367+21.7743+95.1209+21.318+95.2185+20.8677L95.2478+20.7351L92.0988+20.7362L92.0731+20.8066C91.995+21.0306+91.8477+21.2535+91.6313+21.4755C91.4149+21.6975+91.1341+21.8818+90.7888+22.0282C90.4436+22.1747+90.0338+22.248+89.5595+22.248C88.9615+22.248+88.446+22.116+88.0131+21.8522C87.5803+21.5883+87.2469+21.2082+87.013+20.7117C86.7791+20.2152+86.6622+19.6181+86.6622+18.9204L86.6622+17.5817C86.6622+16.8605+86.7795+16.2488+87.014+15.7464C87.2486+15.2441+87.5724+14.863+87.9854+14.603C88.3984+14.3431+88.8723+14.2131+89.4071+14.2131C89.9427+14.2131+90.413+14.3392+90.8181+14.5913C91.2233+14.8435+91.54+15.2195+91.7684+15.7195C91.9967+16.2195+92.1109+16.8402+92.1109+17.5817L92.1109+18.9087L93.7308+16.8908L84.971+16.8908L84.971+19.0449L95.3533+19.0449L95.3533+17.9891C95.3533+16.7164+95.1094+15.6051+94.6217+14.6552C94.134+13.7053+93.4411+12.9682+92.543+12.4439C91.6449+11.9195+90.5801+11.6573+89.3485+11.6573C88.117+11.6573+87.0473+11.9273+86.1394+12.4673C85.2316+13.0073+84.5287+13.77+84.0309+14.7554C83.533+15.7408+83.2841+16.9031+83.2841+18.2422L83.2841+18.2539C83.2841+19.5976+83.5332+20.7601+84.0314+21.7413C84.5297+22.7225+85.2423+23.4782+86.1693+24.0083C87.0963+24.5385+88.2029+24.8036+89.4892+24.8036Z" opacity="1"/>
<path d="M103.095+24.8036C104.216+24.8036+105.191+24.5956+106.017+24.1795C106.844+23.7635+107.495+23.1953+107.972+22.4747C108.449+21.7542+108.721+20.9352+108.788+20.0176L108.794+19.9414L105.609+19.9436L105.591+20.0362C105.471+20.6758+105.202+21.1829+104.784+21.5577C104.365+21.9326+103.811+22.12+103.121+22.12C102.55+22.12+102.057+21.9685+101.643+21.6657C101.229+21.3628+100.91+20.9214+100.687+20.3415C100.465+19.7615+100.354+19.0584+100.354+18.2321L100.354+18.2182C100.354+17.406+100.465+16.7111+100.687+16.1333C100.909+15.5556+101.227+15.1124+101.639+14.8038C102.052+14.4952+102.543+14.3409+103.111+14.3409C103.822+14.3409+104.387+14.5406+104.805+14.9399C105.223+15.3393+105.484+15.8402+105.588+16.4428L105.605+16.5334L108.785+16.5334L108.781+16.4598C108.728+15.5437+108.464+14.7239+107.991+14.0005C107.518+13.2771+106.863+12.7058+106.028+12.2864C105.193+11.867+104.207+11.6573+103.07+11.6573C101.799+11.6573+100.701+11.9208+99.7737+12.4478C98.8466+12.9748+98.1314+13.7273+97.6281+14.7055C97.1247+15.6836+96.873+16.8498+96.873+18.2039L96.873+18.2176C96.873+19.5803+97.1233+20.7542+97.6239+21.7392C98.1244+22.7243+98.8398+23.4812+99.77+24.0102C100.7+24.5391+101.808+24.8036+103.095+24.8036Z" opacity="1" fill="#27272a"/>
<path opacity="1" d="M115.755+24.7622C116.106+24.7622+116.423+24.7483+116.704+24.7206C116.985+24.6929+117.223+24.6627+117.418+24.63L117.418+22.1205C117.302+22.133+117.183+22.1449+117.061+22.1562C116.939+22.1676+116.795+22.1733+116.631+22.1733C116.101+22.1733+115.705+22.0553+115.445+21.8193C115.184+21.5834+115.054+21.1731+115.054+20.5887L115.054+14.4966L117.418+14.4966L117.418+11.9184L115.054+11.9184L115.054+8.85069L111.597+8.85069L111.597+11.9184L109.807+11.9184L109.807+14.4966L111.597+14.4966L111.597+21.0393C111.597+22.3659+111.934+23.3181+112.607+23.8957C113.28+24.4734+114.329+24.7622+115.755+24.7622Z" fill="#27272a"/>
<path d="M125.296+24.8036C126.577+24.8036+127.683+24.5422+128.616+24.0195C129.55+23.4968+130.271+22.7455+130.78+21.7656C131.29+20.7857+131.545+19.6092+131.545+18.2363L131.545+18.2129C131.545+16.8479+131.287+15.6764+130.772+14.6983C130.256+13.7203+129.531+12.969+128.597+12.4443C127.662+11.9197+126.56+11.6573+125.291+11.6573C124.031+11.6573+122.933+11.9206+121.998+12.4472C121.063+12.9739+120.337+13.727+119.822+14.7066C119.306+15.6862+119.048+16.855+119.048+18.2129L119.048+18.2363C119.048+19.6028+119.302+20.7768+119.81+21.7583C120.319+22.7399+121.04+23.4928+121.975+24.0171C122.911+24.5414+124.018+24.8036+125.296+24.8036ZM125.306+22.12C124.736+22.12+124.243+21.968+123.829+21.664C123.414+21.3601+123.094+20.9185+122.87+20.3394C122.645+19.7602+122.533+19.0595+122.533+18.2374L122.533+18.214C122.533+17.3959+122.646+16.699+122.873+16.1233C123.099+15.5476+123.42+15.1066+123.834+14.8003C124.249+14.4941+124.735+14.3409+125.291+14.3409C125.855+14.3409+126.345+14.4933+126.759+14.798C127.173+15.1026+127.493+15.5436+127.72+16.1209C127.947+16.6982+128.06+17.3959+128.06+18.214L128.06+18.2374C128.06+19.0588+127.948+19.7591+127.725+20.3383C127.502+20.9174+127.185+21.3592+126.774+21.6635C126.363+21.9678+125.874+22.12+125.306+22.12Z" fill="#27272a" opacity="1"/>
<path fill="#27272a" d="M133.564+24.5426L136.986+24.5426L136.986+17.4773C136.986+16.868+137.095+16.3509+137.313+15.9262C137.53+15.5014+137.846+15.1781+138.26+14.9562C138.674+14.7342+139.17+14.6233+139.748+14.6233C140.002+14.6233+140.242+14.6407+140.468+14.6755C140.695+14.7102+140.889+14.7573+141.05+14.8166L141.05+11.8102C140.914+11.7691+140.756+11.7355+140.576+11.7093C140.396+11.6832+140.207+11.6701+140.008+11.6701C139.258+11.6701+138.63+11.8811+138.123+12.303C137.617+12.7248+137.27+13.3161+137.082+14.0767L136.986+14.0767L136.986+11.9184L133.564+11.9184L133.564+24.5426Z" opacity="1"/>
</g>
<path opacity="1" fill="#818cf8" d="M24.9332+27.4381L2.057+27.4381L2.057+4.56189L6.14204+0.476854L6.14204+23.3531L24.9332+23.3531L24.9332+27.4381Z"/>
<path d="M29.0183+8.64693L29.0183+31.5231L6.14204+31.5231L2.057+27.4381L24.9332+27.4381L24.9332+8.64693L29.0183+8.64693Z" fill="#4f46e5" opacity="1"/>
<path d="M10.2271+4.56189L33.1033+4.56189L33.1033+27.4381L29.0183+31.5231L29.0183+8.64693L10.2271+8.64693L10.2271+4.56189Z" fill="#818cf8" opacity="1"/>
<path fill="#c7d2fe" d="M6.14204+23.3531L6.14204+0.476854L29.0183+0.476854L33.1033+4.56189L10.2271+4.56189L10.2271+23.3531L6.14204+23.3531Z" opacity="1"/>
</g>
</svg>
